<svg width="24" height="24" viewBox="0 0 24 24" fill="none" xmlns="http://www.w3.org/2000/svg">
<path d="M12 6.50248C8.95984 6.50248 6.50627 8.95605 6.50627 11.9962C6.50627 15.0364 8.95984 17.49 12 17.49C15.0402 17.49 17.4938 15.0364 17.4938 11.9962C17.4938 8.95605 15.0402 6.50248 12 6.50248ZM12 15.5668C10.034 15.5668 8.42949 13.9623 8.42949 11.9962C8.42949 10.0302 10.034 8.4257 12 8.4257C13.9661 8.4257 15.5706 10.0302 15.5706 11.9962C15.5706 13.9623 13.9661 15.5668 12 15.5668ZM17.7188 4.99712C17.009 4.99712 16.4357 5.57034 16.4357 6.28016C16.4357 6.98998 17.009 7.5632 17.7188 7.5632C18.4286 7.5632 19.0018 6.99266 19.0018 6.28016C19.002 6.11161 18.969 5.94467 18.9046 5.78891C18.8402 5.63315 18.7457 5.49163 18.6265 5.37244C18.5073 5.25326 18.3658 5.15876 18.21 5.09436C18.0543 5.02995 17.8873 4.99691 17.7188 4.99712ZM22.709 11.9962C22.709 10.5177 22.7223 9.05248 22.6393 7.57659C22.5563 5.8623 22.1652 4.34087 20.9116 3.0873C19.6554 1.83105 18.1366 1.44266 16.4223 1.35962C14.9438 1.27659 13.4786 1.28998 12.0027 1.28998C10.5241 1.28998 9.05895 1.27659 7.58306 1.35962C5.86877 1.44266 4.34734 1.83373 3.09377 3.0873C1.83752 4.34355 1.44913 5.8623 1.36609 7.57659C1.28306 9.05516 1.29645 10.5203 1.29645 11.9962C1.29645 13.4721 1.28306 14.94 1.36609 16.4159C1.44913 18.1302 1.8402 19.6516 3.09377 20.9052C4.35002 22.1614 5.86877 22.5498 7.58306 22.6328C9.06163 22.7159 10.5268 22.7025 12.0027 22.7025C13.4813 22.7025 14.9465 22.7159 16.4223 22.6328C18.1366 22.5498 19.6581 22.1587 20.9116 20.9052C22.1679 19.6489 22.5563 18.1302 22.6393 16.4159C22.725 14.94 22.709 13.4748 22.709 11.9962ZM20.3518 18.3123C20.1563 18.7998 19.9206 19.1641 19.5429 19.5391C19.1652 19.9168 18.8036 20.1525 18.3161 20.348C16.9072 20.9078 13.5616 20.7819 12 20.7819C10.4384 20.7819 7.0902 20.9078 5.68127 20.3507C5.19377 20.1552 4.82949 19.9194 4.45449 19.5418C4.07681 19.1641 3.84109 18.8025 3.64556 18.315C3.08842 16.9034 3.21431 13.5578 3.21431 11.9962C3.21431 10.4346 3.08842 7.08641 3.64556 5.67748C3.84109 5.18998 4.07681 4.8257 4.45449 4.4507C4.83217 4.0757 5.19377 3.8373 5.68127 3.64177C7.0902 3.08462 10.4384 3.21052 12 3.21052C13.5616 3.21052 16.9098 3.08462 18.3188 3.64177C18.8063 3.8373 19.1706 4.07302 19.5456 4.4507C19.9232 4.82837 20.159 5.18998 20.3545 5.67748C20.9116 7.08641 20.7857 10.4346 20.7857 11.9962C20.7857 13.5578 20.9116 16.9034 20.3518 18.3123Z" fill="#67E8F9"/>
</svg>
